<svg version="1.1" xmlns="http://www.w3.org/2000/svg" xmlns:xlink="http://www.w3.org/1999/xlink" width="579.17724609375" height="688"><defs/><g><text fill="#eeeeee" stroke="none" font-family="Arial" font-size="24px" font-style="normal" font-weight="normal" text-decoration="none" x="0" y="0">UNREGISTERED</text><text fill="#eeeeee" stroke="none" font-family="Arial" font-size="24px" font-style="normal" font-weight="normal" text-decoration="none" x="0" y="30">UNREGISTERED</text><text fill="#eeeeee" stroke="none" font-family="Arial" font-size="24px" font-style="normal" font-weight="normal" text-decoration="none" x="0" y="60">UNREGISTERED</text><text fill="#eeeeee" stroke="none" font-family="Arial" font-size="24px" font-style="normal" font-weight="normal" text-decoration="none" x="0" y="90">UNREGISTERED</text><text fill="#eeeeee" stroke="none" font-family="Arial" font-size="24px" font-style="normal" font-weight="normal" text-decoration="none" x="0" y="120">UNREGISTERED</text><text fill="#eeeeee" stroke="none" font-family="Arial" font-size="24px" font-style="normal" font-weight="normal" text-decoration="none" x="0" y="150">UNREGISTERED</text><text fill="#eeeeee" stroke="none" font-family="Arial" font-size="24px" font-style="normal" font-weight="normal" text-decoration="none" x="0" y="180">UNREGISTERED</text><text fill="#eeeeee" stroke="none" font-family="Arial" font-size="24px" font-style="normal" font-weight="normal" text-decoration="none" x="0" y="210">UNREGISTERED</text><text fill="#eeeeee" stroke="none" font-family="Arial" font-size="24px" font-style="normal" font-weight="normal" text-decoration="none" x="0" y="240">UNREGISTERED</text><text fill="#eeeeee" stroke="none" font-family="Arial" font-size="24px" font-style="normal" font-weight="normal" text-decoration="none" x="0" y="270">UNREGISTERED</text><text fill="#eeeeee" stroke="none" font-family="Arial" font-size="24px" font-style="normal" font-weight="normal" text-decoration="none" x="0" y="300">UNREGISTERED</text><text fill="#eeeeee" stroke="none" font-family="Arial" font-size="24px" font-style="normal" font-weight="normal" text-decoration="none" x="0" y="330">UNREGISTERED</text><text fill="#eeeeee" stroke="none" font-family="Arial" font-size="24px" font-style="normal" font-weight="normal" text-decoration="none" x="0" y="360">UNREGISTERED</text><text fill="#eeeeee" stroke="none" font-family="Arial" font-size="24px" font-style="normal" font-weight="normal" text-decoration="none" x="0" y="390">UNREGISTERED</text><text fill="#eeeeee" stroke="none" font-family="Arial" font-size="24px" font-style="normal" font-weight="normal" text-decoration="none" x="0" y="420">UNREGISTERED</text><text fill="#eeeeee" stroke="none" font-family="Arial" font-size="24px" font-style="normal" font-weight="normal" text-decoration="none" x="0" y="450">UNREGISTERED</text><text fill="#eeeeee" stroke="none" font-family="Arial" font-size="24px" font-style="normal" font-weight="normal" text-decoration="none" x="0" y="480">UNREGISTERED</text><text fill="#eeeeee" stroke="none" font-family="Arial" font-size="24px" font-style="normal" font-weight="normal" text-decoration="none" x="0" y="510">UNREGISTERED</text><text fill="#eeeeee" stroke="none" font-family="Arial" font-size="24px" font-style="normal" font-weight="normal" text-decoration="none" x="0" y="540">UNREGISTERED</text><text fill="#eeeeee" stroke="none" font-family="Arial" font-size="24px" font-style="normal" font-weight="normal" text-decoration="none" x="0" y="570">UNREGISTERED</text><text fill="#eeeeee" stroke="none" font-family="Arial" font-size="24px" font-style="normal" font-weight="normal" text-decoration="none" x="0" y="600">UNREGISTERED</text><text fill="#eeeeee" stroke="none" font-family="Arial" font-size="24px" font-style="normal" font-weight="normal" text-decoration="none" x="0" y="630">UNREGISTERED</text><text fill="#eeeeee" stroke="none" font-family="Arial" font-size="24px" font-style="normal" font-weight="normal" text-decoration="none" x="0" y="660">UNREGISTERED</text><text fill="#eeeeee" stroke="none" font-family="Arial" font-size="24px" font-style="normal" font-weight="normal" text-decoration="none" x="200" y="0">UNREGISTERED</text><text fill="#eeeeee" stroke="none" font-family="Arial" font-size="24px" font-style="normal" font-weight="normal" text-decoration="none" x="200" y="30">UNREGISTERED</text><text fill="#eeeeee" stroke="none" font-family="Arial" font-size="24px" font-style="normal" font-weight="normal" text-decoration="none" x="200" y="60">UNREGISTERED</text><text fill="#eeeeee" stroke="none" font-family="Arial" font-size="24px" font-style="normal" font-weight="normal" text-decoration="none" x="200" y="90">UNREGISTERED</text><text fill="#eeeeee" stroke="none" font-family="Arial" font-size="24px" font-style="normal" font-weight="normal" text-decoration="none" x="200" y="120">UNREGISTERED</text><text fill="#eeeeee" stroke="none" font-family="Arial" font-size="24px" font-style="normal" font-weight="normal" text-decoration="none" x="200" y="150">UNREGISTERED</text><text fill="#eeeeee" stroke="none" font-family="Arial" font-size="24px" font-style="normal" font-weight="normal" text-decoration="none" x="200" y="180">UNREGISTERED</text><text fill="#eeeeee" stroke="none" font-family="Arial" font-size="24px" font-style="normal" font-weight="normal" text-decoration="none" x="200" y="210">UNREGISTERED</text><text fill="#eeeeee" stroke="none" font-family="Arial" font-size="24px" font-style="normal" font-weight="normal" text-decoration="none" x="200" y="240">UNREGISTERED</text><text fill="#eeeeee" stroke="none" font-family="Arial" font-size="24px" font-style="normal" font-weight="normal" text-decoration="none" x="200" y="270">UNREGISTERED</text><text fill="#eeeeee" stroke="none" font-family="Arial" font-size="24px" font-style="normal" font-weight="normal" text-decoration="none" x="200" y="300">UNREGISTERED</text><text fill="#eeeeee" stroke="none" font-family="Arial" font-size="24px" font-style="normal" font-weight="normal" text-decoration="none" x="200" y="330">UNREGISTERED</text><text fill="#eeeeee" stroke="none" font-family="Arial" font-size="24px" font-style="normal" font-weight="normal" text-decoration="none" x="200" y="360">UNREGISTERED</text><text fill="#eeeeee" stroke="none" font-family="Arial" font-size="24px" font-style="normal" font-weight="normal" text-decoration="none" x="200" y="390">UNREGISTERED</text><text fill="#eeeeee" stroke="none" font-family="Arial" font-size="24px" font-style="normal" font-weight="normal" text-decoration="none" x="200" y="420">UNREGISTERED</text><text fill="#eeeeee" stroke="none" font-family="Arial" font-size="24px" font-style="normal" font-weight="normal" text-decoration="none" x="200" y="450">UNREGISTERED</text><text fill="#eeeeee" stroke="none" font-family="Arial" font-size="24px" font-style="normal" font-weight="normal" text-decoration="none" x="200" y="480">UNREGISTERED</text><text fill="#eeeeee" stroke="none" font-family="Arial" font-size="24px" font-style="normal" font-weight="normal" text-decoration="none" x="200" y="510">UNREGISTERED</text><text fill="#eeeeee" stroke="none" font-family="Arial" font-size="24px" font-style="normal" font-weight="normal" text-decoration="none" x="200" y="540">UNREGISTERED</text><text fill="#eeeeee" stroke="none" font-family="Arial" font-size="24px" font-style="normal" font-weight="normal" text-decoration="none" x="200" y="570">UNREGISTERED</text><text fill="#eeeeee" stroke="none" font-family="Arial" font-size="24px" font-style="normal" font-weight="normal" text-decoration="none" x="200" y="600">UNREGISTERED</text><text fill="#eeeeee" stroke="none" font-family="Arial" font-size="24px" font-style="normal" font-weight="normal" text-decoration="none" x="200" y="630">UNREGISTERED</text><text fill="#eeeeee" stroke="none" font-family="Arial" font-size="24px" font-style="normal" font-weight="normal" text-decoration="none" x="200" y="660">UNREGISTERED</text><text fill="#eeeeee" stroke="none" font-family="Arial" font-size="24px" font-style="normal" font-weight="normal" text-decoration="none" x="400" y="0">UNREGISTERED</text><text fill="#eeeeee" stroke="none" font-family="Arial" font-size="24px" font-style="normal" font-weight="normal" text-decoration="none" x="400" y="30">UNREGISTERED</text><text fill="#eeeeee" stroke="none" font-family="Arial" font-size="24px" font-style="normal" font-weight="normal" text-decoration="none" x="400" y="60">UNREGISTERED</text><text fill="#eeeeee" stroke="none" font-family="Arial" font-size="24px" font-style="normal" font-weight="normal" text-decoration="none" x="400" y="90">UNREGISTERED</text><text fill="#eeeeee" stroke="none" font-family="Arial" font-size="24px" font-style="normal" font-weight="normal" text-decoration="none" x="400" y="120">UNREGISTERED</text><text fill="#eeeeee" stroke="none" font-family="Arial" font-size="24px" font-style="normal" font-weight="normal" text-decoration="none" x="400" y="150">UNREGISTERED</text><text fill="#eeeeee" stroke="none" font-family="Arial" font-size="24px" font-style="normal" font-weight="normal" text-decoration="none" x="400" y="180">UNREGISTERED</text><text fill="#eeeeee" stroke="none" font-family="Arial" font-size="24px" font-style="normal" font-weight="normal" text-decoration="none" x="400" y="210">UNREGISTERED</text><text fill="#eeeeee" stroke="none" font-family="Arial" font-size="24px" font-style="normal" font-weight="normal" text-decoration="none" x="400" y="240">UNREGISTERED</text><text fill="#eeeeee" stroke="none" font-family="Arial" font-size="24px" font-style="normal" font-weight="normal" text-decoration="none" x="400" y="270">UNREGISTERED</text><text fill="#eeeeee" stroke="none" font-family="Arial" font-size="24px" font-style="normal" font-weight="normal" text-decoration="none" x="400" y="300">UNREGISTERED</text><text fill="#eeeeee" stroke="none" font-family="Arial" font-size="24px" font-style="normal" font-weight="normal" text-decoration="none" x="400" y="330">UNREGISTERED</text><text fill="#eeeeee" stroke="none" font-family="Arial" font-size="24px" font-style="normal" font-weight="normal" text-decoration="none" x="400" y="360">UNREGISTERED</text><text fill="#eeeeee" stroke="none" font-family="Arial" font-size="24px" font-style="normal" font-weight="normal" text-decoration="none" x="400" y="390">UNREGISTERED</text><text fill="#eeeeee" stroke="none" font-family="Arial" font-size="24px" font-style="normal" font-weight="normal" text-decoration="none" x="400" y="420">UNREGISTERED</text><text fill="#eeeeee" stroke="none" font-family="Arial" font-size="24px" font-style="normal" font-weight="normal" text-decoration="none" x="400" y="450">UNREGISTERED</text><text fill="#eeeeee" stroke="none" font-family="Arial" font-size="24px" font-style="normal" font-weight="normal" text-decoration="none" x="400" y="480">UNREGISTERED</text><text fill="#eeeeee" stroke="none" font-family="Arial" font-size="24px" font-style="normal" font-weight="normal" text-decoration="none" x="400" y="510">UNREGISTERED</text><text fill="#eeeeee" stroke="none" font-family="Arial" font-size="24px" font-style="normal" font-weight="normal" text-decoration="none" x="400" y="540">UNREGISTERED</text><text fill="#eeeeee" stroke="none" font-family="Arial" font-size="24px" font-style="normal" font-weight="normal" text-decoration="none" x="400" y="570">UNREGISTERED</text><text fill="#eeeeee" stroke="none" font-family="Arial" font-size="24px" font-style="normal" font-weight="normal" text-decoration="none" x="400" y="600">UNREGISTERED</text><text fill="#eeeeee" stroke="none" font-family="Arial" font-size="24px" font-style="normal" font-weight="normal" text-decoration="none" x="400" y="630">UNREGISTERED</text><text fill="#eeeeee" stroke="none" font-family="Arial" font-size="24px" font-style="normal" font-weight="normal" text-decoration="none" x="400" y="660">UNREGISTERED</text><g transform="translate(-190,-150) scale(1,1)"><rect fill="#C0C0C0" stroke="none" x="423" y="351" width="120.642578125" height="102" opacity="0.2"/></g><g transform="translate(-190,-150) scale(1,1)"><rect fill="#ffffff" stroke="none" x="416" y="344" width="120.642578125" height="102"/></g><g transform="translate(-190,-150) scale(1,1)"><path fill="none" stroke="#000000" d="M 416 344 L 536.642578125 344 L 536.642578125 446 L 416 446 L 416 344 Z Z" stroke-miterlimit="10"/></g><g transform="translate(-190,-150) scale(1,1)"><path fill="none" stroke="#000000" d="M 416 369 L 536.642578125 369" stroke-miterlimit="10"/></g><g transform="translate(-190,-150) scale(1,1)"><path fill="none" stroke="#000000" d="M 416 407 L 536.642578125 407" stroke-miterlimit="10"/></g><g transform="translate(-190,-150) scale(1,1)"><g><path fill="none" stroke="none"/><text fill="#000000" stroke="none" font-family="Arial" font-size="13px" font-style="normal" font-weight="bold" text-decoration="none" x="442.6025390625" y="363.5">Transaction</text></g></g><g transform="translate(-190,-150) scale(1,1)"><g><path fill="none" stroke="none"/><text fill="#000000" stroke="none" font-family="Arial" font-size="13px" font-style="normal" font-weight="normal" text-decoration="none" x="421" y="386.5">+payee: String</text></g></g><g transform="translate(-190,-150) scale(1,1)"><g><path fill="none" stroke="none"/><text fill="#000000" stroke="none" font-family="Arial" font-size="13px" font-style="normal" font-weight="normal" text-decoration="none" x="421" y="401.5">+description: String</text></g></g><g transform="translate(-190,-150) scale(1,1)"><rect fill="#C0C0C0" stroke="none" x="271" y="167" width="149.55615234375" height="57" opacity="0.2"/></g><g transform="translate(-190,-150) scale(1,1)"><rect fill="#ffffff" stroke="none" x="264" y="160" width="149.55615234375" height="57"/></g><g transform="translate(-190,-150) scale(1,1)"><path fill="none" stroke="#000000" d="M 264 160 L 413.55615234375 160 L 413.55615234375 217 L 264 217 L 264 160 Z Z" stroke-miterlimit="10"/></g><g transform="translate(-190,-150) scale(1,1)"><path fill="none" stroke="#000000" d="M 264 185 L 413.55615234375 185" stroke-miterlimit="10"/></g><g transform="translate(-190,-150) scale(1,1)"><path fill="none" stroke="#000000" d="M 264 208 L 413.55615234375 208" stroke-miterlimit="10"/></g><g transform="translate(-190,-150) scale(1,1)"><g><path fill="none" stroke="none"/><text fill="#000000" stroke="none" font-family="Arial" font-size="13px" font-style="normal" font-weight="bold" text-decoration="none" x="279.4052734375" y="179.5">TransactionManager</text></g></g><g transform="translate(-190,-150) scale(1,1)"><g><path fill="none" stroke="none"/><text fill="#000000" stroke="none" font-family="Arial" font-size="13px" font-style="normal" font-weight="normal" text-decoration="none" x="269" y="202.5">+allPayees: List&lt;String&gt;</text></g></g><g transform="translate(-190,-150) scale(1,1)"><rect fill="#C0C0C0" stroke="none" x="367" y="655" width="142.1103515625" height="72" opacity="0.2"/></g><g transform="translate(-190,-150) scale(1,1)"><rect fill="#ffffff" stroke="none" x="360" y="648" width="142.1103515625" height="72"/></g><g transform="translate(-190,-150) scale(1,1)"><path fill="none" stroke="#000000" d="M 360 648 L 502.1103515625 648 L 502.1103515625 720 L 360 720 L 360 648 Z Z" stroke-miterlimit="10"/></g><g transform="translate(-190,-150) scale(1,1)"><path fill="none" stroke="#000000" d="M 360 673 L 502.1103515625 673" stroke-miterlimit="10"/></g><g transform="translate(-190,-150) scale(1,1)"><path fill="none" stroke="#000000" d="M 360 711 L 502.1103515625 711" stroke-miterlimit="10"/></g><g transform="translate(-190,-150) scale(1,1)"><g><path fill="none" stroke="none"/><text fill="#000000" stroke="none" font-family="Arial" font-size="13px" font-style="normal" font-weight="bold" text-decoration="none" x="404.6806640625" y="667.5">Category</text></g></g><g transform="translate(-190,-150) scale(1,1)"><g><path fill="none" stroke="none"/><text fill="#000000" stroke="none" font-family="Arial" font-size="13px" font-style="normal" font-weight="normal" text-decoration="none" x="365" y="690.5">+budgetedValues: Map</text></g></g><g transform="translate(-190,-150) scale(1,1)"><g><path fill="none" stroke="none"/><text fill="#000000" stroke="none" font-family="Arial" font-size="13px" font-style="normal" font-weight="normal" text-decoration="none" x="365" y="705.5">+name: String</text></g></g><g transform="translate(-190,-150) scale(1,1)"><rect fill="#C0C0C0" stroke="none" x="207" y="495" width="133.95361328125" height="57" opacity="0.2"/></g><g transform="translate(-190,-150) scale(1,1)"><rect fill="#ffffff" stroke="none" x="200" y="488" width="133.95361328125" height="57"/></g><g transform="translate(-190,-150) scale(1,1)"><path fill="none" stroke="#000000" d="M 200 488 L 333.95361328125 488 L 333.95361328125 545 L 200 545 L 200 488 Z Z" stroke-miterlimit="10"/></g><g transform="translate(-190,-150) scale(1,1)"><path fill="none" stroke="#000000" d="M 200 513 L 333.95361328125 513" stroke-miterlimit="10"/></g><g transform="translate(-190,-150) scale(1,1)"><path fill="none" stroke="#000000" d="M 200 523 L 333.95361328125 523" stroke-miterlimit="10"/></g><g transform="translate(-190,-150) scale(1,1)"><g><path fill="none" stroke="none"/><text fill="#000000" stroke="none" font-family="Arial" font-size="13px" font-style="normal" font-weight="bold" text-decoration="none" x="220.721435546875" y="507.5">BudgetManager</text></g></g><g transform="translate(-190,-150) scale(1,1)"><path fill="none" stroke="#000000" d="M 360 676 L 293 676 L 293 545" stroke-miterlimit="10"/></g><g transform="translate(-190,-150) scale(1,1)"><path fill="#FFFFFF" stroke="none" d="M 297.209517756016 555.1626748576241 L 293 545 L 288.790482243984 555.1626748576241 L 293 567"/></g><g transform="translate(-190,-150) scale(1,1)"><path fill="none" stroke="#000000" d="M 297.209517756016 555.1626748576241 L 293 545 L 288.790482243984 555.1626748576241 L 293 567 L 297.209517756016 555.1626748576241" stroke-miterlimit="10"/></g><g transform="translate(-190,-150) scale(1,1)"><g><path fill="none" stroke="none"/><text fill="#000000" stroke="none" font-family="Arial" font-size="13px" font-style="normal" font-weight="normal" text-decoration="none" x="328.5" y="669.5">0..*</text></g></g><g transform="translate(-190,-150) scale(1,1)"><g><path fill="none" stroke="none"/><text fill="#000000" stroke="none" font-family="Arial" font-size="13px" font-style="normal" font-weight="normal" text-decoration="none" x="199.5" y="580.5">+allCategories</text></g></g><g transform="translate(-190,-150) scale(1,1)"><g><path fill="none" stroke="none"/><text fill="#000000" stroke="none" font-family="Arial" font-size="13px" font-style="normal" font-weight="normal" text-decoration="none" x="301.5" y="572.5">1</text></g></g><g transform="translate(-190,-150) scale(1,1)"><path fill="none" stroke="#000000" d="M 448 446 L 448 648" stroke-miterlimit="10"/></g><g transform="translate(-190,-150) scale(1,1)"><path fill="#FFFFFF" stroke="none" d="M 452.209517756016 456.16267485762415 L 448 446 L 443.790482243984 456.16267485762415 L 448 468"/></g><g transform="translate(-190,-150) scale(1,1)"><path fill="none" stroke="#000000" d="M 452.209517756016 456.16267485762415 L 448 446 L 443.790482243984 456.16267485762415 L 448 468 L 452.209517756016 456.16267485762415" stroke-miterlimit="10"/></g><g transform="translate(-190,-150) scale(1,1)"><g><path fill="none" stroke="none"/><text fill="#000000" stroke="none" font-family="Arial" font-size="13px" font-style="normal" font-weight="normal" text-decoration="none" x="463.5" y="476.5">+category</text></g></g><g transform="translate(-190,-150) scale(1,1)"><g><path fill="none" stroke="none"/><text fill="#000000" stroke="none" font-family="Arial" font-size="13px" font-style="normal" font-weight="normal" text-decoration="none" x="423.5" y="476.5">1</text></g></g><g transform="translate(-190,-150) scale(1,1)"><g><path fill="none" stroke="none"/><text fill="#000000" stroke="none" font-family="Arial" font-size="13px" font-style="normal" font-weight="normal" text-decoration="none" x="431.5" y="632.5">1</text></g></g><g transform="translate(-190,-150) scale(1,1)"><path fill="none" stroke="#000000" d="M 416 395 L 349 395 L 349 217" stroke-miterlimit="10"/></g><g transform="translate(-190,-150) scale(1,1)"><path fill="#FFFFFF" stroke="none" d="M 353.209517756016 227.16267485762415 L 349 217 L 344.790482243984 227.16267485762415 L 349 239"/></g><g transform="translate(-190,-150) scale(1,1)"><path fill="none" stroke="#000000" d="M 353.209517756016 227.16267485762415 L 349 217 L 344.790482243984 227.16267485762415 L 349 239 L 353.209517756016 227.16267485762415" stroke-miterlimit="10"/></g><g transform="translate(-190,-150) scale(1,1)"><g><path fill="none" stroke="none"/><text fill="#000000" stroke="none" font-family="Arial" font-size="13px" font-style="normal" font-weight="normal" text-decoration="none" x="384.5" y="388.5">0..*</text></g></g><g transform="translate(-190,-150) scale(1,1)"><g><path fill="none" stroke="none"/><text fill="#000000" stroke="none" font-family="Arial" font-size="13px" font-style="normal" font-weight="normal" text-decoration="none" x="238.5" y="248.5">+allTransactions</text></g></g><g transform="translate(-190,-150) scale(1,1)"><g><path fill="none" stroke="none"/><text fill="#000000" stroke="none" font-family="Arial" font-size="13px" font-style="normal" font-weight="normal" text-decoration="none" x="357.5" y="244.5">1</text></g></g><g transform="translate(-190,-150) scale(1,1)"><rect fill="#C0C0C0" stroke="none" x="599" y="279" width="167.17724609375" height="44" opacity="0.2"/></g><g transform="translate(-190,-150) scale(1,1)"><rect fill="#ffffff" stroke="none" x="592" y="272" width="167.17724609375" height="44"/></g><g transform="translate(-190,-150) scale(1,1)"><path fill="none" stroke="#000000" d="M 592 272 L 759.17724609375 272 L 759.17724609375 316 L 592 316 L 592 272 Z Z" stroke-miterlimit="10"/></g><g transform="translate(-190,-150) scale(1,1)"><path fill="none" stroke="#000000" d="M 592 297 L 759.17724609375 297" stroke-miterlimit="10"/></g><g transform="translate(-190,-150) scale(1,1)"><path fill="none" stroke="#000000" d="M 592 307 L 759.17724609375 307" stroke-miterlimit="10"/></g><g transform="translate(-190,-150) scale(1,1)"><g><path fill="none" stroke="none"/><text fill="#000000" stroke="none" font-family="Arial" font-size="13px" font-style="normal" font-weight="bold" text-decoration="none" x="604.06005859375" y="291.5">kotlin-stdlib.kotlin.js.Date</text></g></g><g transform="translate(-190,-150) scale(1,1)"><path fill="none" stroke="#000000" d="M 672 316 L 672 378 L 537 378" stroke-miterlimit="10"/></g><g transform="translate(-190,-150) scale(1,1)"><path fill="#FFFFFF" stroke="none" d="M 547.1626748576241 373.790482243984 L 537 378 L 547.1626748576241 382.209517756016 L 559 378"/></g><g transform="translate(-190,-150) scale(1,1)"><path fill="none" stroke="#000000" d="M 547.1626748576241 373.790482243984 L 537 378 L 547.1626748576241 382.209517756016 L 559 378 L 547.1626748576241 373.790482243984" stroke-miterlimit="10"/></g><g transform="translate(-190,-150) scale(1,1)"><g><path fill="none" stroke="none"/><text fill="#000000" stroke="none" font-family="Arial" font-size="13px" font-style="normal" font-weight="normal" text-decoration="none" x="655.5" y="343.5">1</text></g></g><g transform="translate(-190,-150) scale(1,1)"><g><path fill="none" stroke="none"/><text fill="#000000" stroke="none" font-family="Arial" font-size="13px" font-style="normal" font-weight="normal" text-decoration="none" x="545.5" y="398.5">+date</text></g></g><g transform="translate(-190,-150) scale(1,1)"><g><path fill="none" stroke="none"/><text fill="#000000" stroke="none" font-family="Arial" font-size="13px" font-style="normal" font-weight="normal" text-decoration="none" x="554.5" y="371.5">1</text></g></g><g transform="translate(-190,-150) scale(1,1)"><rect fill="#C0C0C0" stroke="none" x="439" y="791" width="222.0654296875" height="44" opacity="0.2"/></g><g transform="translate(-190,-150) scale(1,1)"><rect fill="#ffffff" stroke="none" x="432" y="784" width="222.0654296875" height="44"/></g><g transform="translate(-190,-150) scale(1,1)"><path fill="none" stroke="#000000" d="M 432 784 L 654.0654296875 784 L 654.0654296875 828 L 432 828 L 432 784 Z Z" stroke-miterlimit="10"/></g><g transform="translate(-190,-150) scale(1,1)"><path fill="none" stroke="#000000" d="M 432 809 L 654.0654296875 809" stroke-miterlimit="10"/></g><g transform="translate(-190,-150) scale(1,1)"><path fill="none" stroke="#000000" d="M 432 819 L 654.0654296875 819" stroke-miterlimit="10"/></g><g transform="translate(-190,-150) scale(1,1)"><g><path fill="none" stroke="none"/><text fill="#000000" stroke="none" font-family="Arial" font-size="13px" font-style="normal" font-weight="bold" text-decoration="none" x="446.935546875" y="803.5">kotlin-stdlib.kotlin.collections.Map</text></g></g><g transform="translate(-190,-150) scale(1,1)"><path fill="none" stroke="#000000" d="M 457 784 L 457 720" stroke-miterlimit="10"/></g><g transform="translate(-190,-150) scale(1,1)"><path fill="#FFFFFF" stroke="none" d="M 461.209517756016 730.1626748576241 L 457 720 L 452.790482243984 730.1626748576241 L 457 742"/></g><g transform="translate(-190,-150) scale(1,1)"><path fill="none" stroke="#000000" d="M 461.209517756016 730.1626748576241 L 457 720 L 452.790482243984 730.1626748576241 L 457 742 L 461.209517756016 730.1626748576241" stroke-miterlimit="10"/></g><g transform="translate(-190,-150) scale(1,1)"><g><path fill="none" stroke="none"/><text fill="#000000" stroke="none" font-family="Arial" font-size="13px" font-style="normal" font-weight="normal" text-decoration="none" x="465.5" y="772.5">1</text></g></g><g transform="translate(-190,-150) scale(1,1)"><g><path fill="none" stroke="none"/><text fill="#000000" stroke="none" font-family="Arial" font-size="13px" font-style="normal" font-weight="normal" text-decoration="none" x="325.5" y="754.5">+budgetedValues</text></g></g><g transform="translate(-190,-150) scale(1,1)"><g><path fill="none" stroke="none"/><text fill="#000000" stroke="none" font-family="Arial" font-size="13px" font-style="normal" font-weight="normal" text-decoration="none" x="465.5" y="747.5">1</text></g></g></g></svg>